<svg width="1391" height="310" viewBox="0 0 1391 310" fill="none" xmlns="http://www.w3.org/2000/svg">
<mask id="path-1-outside-1_6044_1669" maskUnits="userSpaceOnUse" x="0" y="0" width="1391" height="310" fill="black">
<rect fill="white" width="1391" height="310"/>
<path d="M123.738 308.8C105.071 308.8 87.4708 305.467 70.9375 298.8C54.6708 291.867 40.5375 282.133 28.5375 269.6C16.8042 257.067 8.00417 242.267 2.1375 225.2L52.9375 202.4C60.4042 218.667 70.6708 231.467 83.7375 240.8C97.0708 250.133 111.738 254.8 127.738 254.8C136.271 254.8 143.604 253.467 149.738 250.8C155.871 248.133 160.671 244.533 164.138 240C167.604 235.2 169.338 229.6 169.338 223.2C169.338 216.267 167.204 210.4 162.938 205.6C158.671 200.533 152.004 196.533 142.938 193.6L84.5375 174.4C60.8042 166.667 42.9375 155.733 30.9375 141.6C18.9375 127.2 12.9375 110 12.9375 90C12.9375 72.4 17.2042 56.9333 25.7375 43.6C34.5375 30.2667 46.6708 19.8667 62.1375 12.4C77.8708 4.93332 95.8708 1.19999 116.138 1.19999C134.004 1.19999 150.538 4.26666 165.738 10.4C180.938 16.5333 194.004 25.2 204.938 36.4C216.138 47.6 224.538 61.0667 230.138 76.8L179.738 99.6C174.138 85.7333 165.738 74.9333 154.538 67.2C143.338 59.2 130.538 55.2 116.138 55.2C107.871 55.2 100.538 56.5333 94.1375 59.2C87.7375 61.8666 82.8042 65.7333 79.3375 70.8C75.8708 75.6 74.1375 81.2 74.1375 87.6C74.1375 94.5333 76.4042 100.667 80.9375 106C85.4708 111.067 92.2708 115.067 101.338 118L158.538 136.4C182.538 144.133 200.404 154.933 212.138 168.8C224.138 182.667 230.138 199.6 230.138 219.6C230.138 236.933 225.604 252.4 216.538 266C207.471 279.333 194.938 289.867 178.938 297.6C163.204 305.067 144.804 308.8 123.738 308.8ZM216.416 304L317.216 5.99997H399.616L500.416 304H432.816L412.816 243.2H303.616L283.616 304H216.416ZM320.816 189.2H395.616L350.016 48.4H366.816L320.816 189.2ZM603.878 308.8C585.211 308.8 567.611 305.467 551.078 298.8C534.811 291.867 520.678 282.133 508.678 269.6C496.945 257.067 488.145 242.267 482.278 225.2L533.078 202.4C540.545 218.667 550.811 231.467 563.878 240.8C577.211 250.133 591.878 254.8 607.878 254.8C616.411 254.8 623.745 253.467 629.878 250.8C636.011 248.133 640.811 244.533 644.278 240C647.745 235.2 649.478 229.6 649.478 223.2C649.478 216.267 647.345 210.4 643.078 205.6C638.811 200.533 632.145 196.533 623.078 193.6L564.678 174.4C540.945 166.667 523.078 155.733 511.078 141.6C499.078 127.2 493.078 110 493.078 90C493.078 72.4 497.345 56.9333 505.878 43.6C514.678 30.2667 526.811 19.8667 542.278 12.4C558.011 4.93332 576.011 1.19999 596.278 1.19999C614.145 1.19999 630.678 4.26666 645.878 10.4C661.078 16.5333 674.145 25.2 685.078 36.4C696.278 47.6 704.678 61.0667 710.278 76.8L659.878 99.6C654.278 85.7333 645.878 74.9333 634.678 67.2C623.478 59.2 610.678 55.2 596.278 55.2C588.011 55.2 580.678 56.5333 574.278 59.2C567.878 61.8666 562.945 65.7333 559.478 70.8C556.011 75.6 554.278 81.2 554.278 87.6C554.278 94.5333 556.545 100.667 561.078 106C565.611 111.067 572.411 115.067 581.478 118L638.678 136.4C662.678 144.133 680.545 154.933 692.278 168.8C704.278 182.667 710.278 199.6 710.278 219.6C710.278 236.933 705.745 252.4 696.678 266C687.611 279.333 675.078 289.867 659.078 297.6C643.345 305.067 624.945 308.8 603.878 308.8ZM722.462 304V5.99997H784.463V304H722.462ZM946.906 308.8C925.573 308.8 905.706 304.933 887.306 297.2C869.173 289.467 853.306 278.667 839.706 264.8C826.106 250.933 815.44 234.667 807.706 216C800.24 197.333 796.506 176.933 796.506 154.8C796.506 132.667 800.24 112.267 807.706 93.6C815.173 74.6667 825.706 58.4 839.306 44.8C852.906 30.9333 868.773 20.2666 886.906 12.8C905.306 5.06665 925.306 1.19999 946.906 1.19999C968.506 1.19999 987.84 4.79999 1004.91 12C1022.24 19.2 1036.91 28.8 1048.91 40.8C1060.91 52.8 1069.44 66.1333 1074.51 80.8L1019.71 107.2C1014.64 92.8 1005.71 80.9333 992.906 71.6C980.373 62 965.04 57.2 946.906 57.2C929.306 57.2 913.84 61.3333 900.506 69.6C887.173 77.8667 876.773 89.3333 869.306 104C862.106 118.4 858.506 135.333 858.506 154.8C858.506 174.267 862.106 191.333 869.306 206C876.773 220.667 887.173 232.133 900.506 240.4C913.84 248.667 929.306 252.8 946.906 252.8C965.04 252.8 980.373 248.133 992.906 238.8C1005.71 229.2 1014.64 217.2 1019.71 202.8L1074.51 229.2C1069.44 243.867 1060.91 257.2 1048.91 269.2C1036.91 281.2 1022.24 290.8 1004.91 298C987.84 305.2 968.506 308.8 946.906 308.8ZM1231.49 308.8C1209.09 308.8 1188.29 304.933 1169.09 297.2C1149.89 289.467 1133.09 278.667 1118.69 264.8C1104.56 250.667 1093.49 234.267 1085.49 215.6C1077.49 196.933 1073.49 176.667 1073.49 154.8C1073.49 132.933 1077.36 112.667 1085.09 94C1093.09 75.3333 1104.16 59.0667 1118.29 45.2C1132.69 31.3333 1149.49 20.5333 1168.69 12.8C1187.89 5.06665 1208.82 1.19999 1231.49 1.19999C1254.16 1.19999 1275.09 5.06665 1294.29 12.8C1313.49 20.5333 1330.16 31.3333 1344.29 45.2C1358.69 59.0667 1369.76 75.3333 1377.49 94C1385.49 112.667 1389.49 132.933 1389.49 154.8C1389.49 176.667 1385.49 196.933 1377.49 215.6C1369.49 234.267 1358.29 250.667 1343.89 264.8C1329.76 278.667 1313.09 289.467 1293.89 297.2C1274.69 304.933 1253.89 308.8 1231.49 308.8ZM1231.49 252.8C1245.09 252.8 1257.62 250.4 1269.09 245.6C1280.82 240.8 1291.09 234.133 1299.89 225.6C1308.69 216.8 1315.49 206.4 1320.29 194.4C1325.09 182.4 1327.49 169.2 1327.49 154.8C1327.49 140.4 1325.09 127.333 1320.29 115.6C1315.49 103.6 1308.69 93.2 1299.89 84.4C1291.09 75.6 1280.82 68.9333 1269.09 64.4C1257.62 59.6 1245.09 57.2 1231.49 57.2C1217.89 57.2 1205.22 59.6 1193.49 64.4C1182.02 68.9333 1171.89 75.6 1163.09 84.4C1154.29 93.2 1147.49 103.6 1142.69 115.6C1137.89 127.333 1135.49 140.4 1135.49 154.8C1135.49 169.2 1137.89 182.4 1142.69 194.4C1147.49 206.4 1154.29 216.8 1163.09 225.6C1171.89 234.133 1182.02 240.8 1193.49 245.6C1205.22 250.4 1217.89 252.8 1231.49 252.8Z"/>
</mask>
<path d="M70.9375 298.8L70.5454 299.72L70.5544 299.724L70.5635 299.727L70.9375 298.8ZM28.5375 269.6L27.8074 270.283L27.8152 270.292L28.5375 269.6ZM2.1375 225.2L1.72803 224.288L0.89498 224.662L1.19181 225.525L2.1375 225.2ZM52.9375 202.4L53.8463 201.983L53.4327 201.082L52.528 201.488L52.9375 202.4ZM83.7375 240.8L83.1562 241.614L83.164 241.619L83.7375 240.8ZM149.738 250.8L150.136 251.717L150.136 251.717L149.738 250.8ZM164.138 240L164.932 240.607L164.94 240.597L164.948 240.585L164.138 240ZM162.938 205.6L162.173 206.244L162.181 206.254L162.19 206.264L162.938 205.6ZM142.938 193.6L142.625 194.55L142.63 194.551L142.938 193.6ZM84.5375 174.4L84.8498 173.45L84.8473 173.449L84.5375 174.4ZM30.9375 141.6L30.1692 142.24L30.1752 142.247L30.9375 141.6ZM25.7375 43.6L24.9028 43.0491L24.8952 43.0609L25.7375 43.6ZM62.1375 12.4L61.7088 11.4965L61.7028 11.4994L62.1375 12.4ZM165.738 10.4L166.112 9.47264L166.112 9.47264L165.738 10.4ZM204.938 36.4L204.222 37.0986L204.23 37.1071L204.938 36.4ZM230.138 76.8L230.55 77.7111L231.388 77.3318L231.08 76.4647L230.138 76.8ZM179.738 99.6L178.81 99.9744L179.2 100.941L180.15 100.511L179.738 99.6ZM154.538 67.2L153.956 68.0137L153.963 68.0184L153.969 68.0229L154.538 67.2ZM94.1375 59.2L94.5221 60.1231L94.5221 60.1231L94.1375 59.2ZM79.3375 70.8L80.1482 71.3855L80.1556 71.3752L80.1628 71.3647L79.3375 70.8ZM80.9375 106L80.1756 106.648L80.1838 106.657L80.1923 106.667L80.9375 106ZM101.338 118L101.03 118.951L101.031 118.952L101.338 118ZM158.538 136.4L158.844 135.448L158.844 135.448L158.538 136.4ZM212.138 168.8L211.374 169.446L211.381 169.454L212.138 168.8ZM216.538 266L217.364 266.562L217.37 266.555L216.538 266ZM178.938 297.6L179.366 298.503L179.373 298.5L178.938 297.6ZM123.738 308.8V307.8C105.193 307.8 87.7204 304.489 71.3115 297.873L70.9375 298.8L70.5635 299.727C87.2213 306.444 104.949 309.8 123.738 309.8V308.8ZM70.9375 298.8L71.3296 297.88C55.1849 290.999 41.1645 281.342 29.2598 268.908L28.5375 269.6L27.8152 270.292C39.9105 282.924 54.1568 292.735 70.5454 299.72L70.9375 298.8ZM28.5375 269.6L29.2675 268.917C17.6354 256.491 8.90642 241.815 3.08319 224.875L2.1375 225.2L1.19181 225.525C7.10191 242.718 15.9729 257.642 27.8075 270.283L28.5375 269.6ZM2.1375 225.2L2.54697 226.112L53.347 203.312L52.9375 202.4L52.528 201.488L1.72803 224.288L2.1375 225.2ZM52.9375 202.4L52.0287 202.817C59.5596 219.224 69.9319 232.168 83.1563 241.614L83.7375 240.8L84.3187 239.986C71.4097 230.766 61.2488 218.11 53.8463 201.983L52.9375 202.4ZM83.7375 240.8L83.164 241.619C96.6624 251.068 111.529 255.8 127.738 255.8V254.8V253.8C111.946 253.8 97.4793 249.199 84.311 239.981L83.7375 240.8ZM127.738 254.8V255.8C136.372 255.8 143.848 254.451 150.136 251.717L149.738 250.8L149.339 249.883C143.361 252.482 136.17 253.8 127.738 253.8V254.8ZM149.738 250.8L150.136 251.717C156.399 248.994 161.345 245.298 164.932 240.607L164.138 240L163.343 239.393C159.996 243.769 155.343 247.272 149.339 249.883L149.738 250.8ZM164.138 240L164.948 240.585C168.548 235.601 170.338 229.792 170.338 223.2H169.338H168.338C168.338 229.408 166.66 234.799 163.327 239.415L164.138 240ZM169.338 223.2H170.338C170.338 216.043 168.128 209.934 163.685 204.936L162.938 205.6L162.19 206.264C166.281 210.866 168.338 216.49 168.338 223.2H169.338ZM162.938 205.6L163.702 204.956C159.273 199.696 152.416 195.616 143.245 192.649L142.938 193.6L142.63 194.551C151.592 197.451 158.068 201.37 162.173 206.244L162.938 205.6ZM142.938 193.6L143.25 192.65L84.8498 173.45L84.5375 174.4L84.2252 175.35L142.625 194.55L142.938 193.6ZM84.5375 174.4L84.8473 173.449C61.2309 165.754 43.5453 154.904 31.6998 140.953L30.9375 141.6L30.1752 142.247C42.3297 156.563 60.3774 167.579 84.2277 175.351L84.5375 174.4ZM30.9375 141.6L31.7057 140.96C19.866 126.752 13.9375 109.783 13.9375 90H12.9375H11.9375C11.9375 110.217 18.009 127.648 30.1693 142.24L30.9375 141.6ZM12.9375 90H13.9375C13.9375 72.569 18.1607 57.2938 26.5798 44.139L25.7375 43.6L24.8952 43.0609C16.2476 56.5728 11.9375 72.231 11.9375 90H12.9375ZM25.7375 43.6L26.5721 44.1508C35.2653 30.9793 47.2553 20.6949 62.5723 13.3005L62.1375 12.4L61.7028 11.4994C46.0863 19.0384 33.8097 29.554 24.9029 43.0491L25.7375 43.6ZM62.1375 12.4L62.5662 13.3034C78.1454 5.90994 95.995 2.19999 116.138 2.19999V1.19999V0.199988C95.7467 0.199988 77.5963 3.9567 61.7088 11.4966L62.1375 12.4ZM116.138 1.19999V2.19999C133.888 2.19999 150.293 5.24615 165.363 11.3273L165.738 10.4L166.112 9.47264C150.782 3.28716 134.121 0.199988 116.138 0.199988V1.19999ZM165.738 10.4L165.363 11.3273C180.441 17.4114 193.39 26.0023 204.222 37.0985L204.938 36.4L205.653 35.7015C194.618 24.3977 181.434 15.6553 166.112 9.47264L165.738 10.4ZM204.938 36.4L204.23 37.1071C215.32 48.1965 223.642 61.534 229.195 77.1353L230.138 76.8L231.08 76.4647C225.433 60.5993 216.955 47.0035 205.645 35.6929L204.938 36.4ZM230.138 76.8L229.725 75.8889L179.325 98.6889L179.738 99.6L180.15 100.511L230.55 77.7111L230.138 76.8ZM179.738 99.6L180.665 99.2255C174.999 85.1961 166.482 74.2325 155.106 66.3771L154.538 67.2L153.969 68.0229C164.993 75.6342 173.276 86.2705 178.81 99.9744L179.738 99.6ZM154.538 67.2L155.119 66.3863C143.741 58.2593 130.736 54.2 116.138 54.2V55.2V56.2C130.339 56.2 142.934 60.1407 153.956 68.0137L154.538 67.2ZM116.138 55.2V54.2C107.764 54.2 100.296 55.5507 93.7529 58.2769L94.1375 59.2L94.5221 60.1231C100.779 57.5159 107.978 56.2 116.138 56.2V55.2ZM94.1375 59.2L93.7529 58.2769C87.1982 61.008 82.1017 64.9891 78.5122 70.2353L79.3375 70.8L80.1628 71.3647C83.5066 66.4776 88.2768 62.7253 94.5221 60.1231L94.1375 59.2ZM79.3375 70.8L78.5268 70.2145C74.927 75.1989 73.1375 81.0077 73.1375 87.6H74.1375H75.1375C75.1375 81.3923 76.8147 76.0011 80.1482 71.3855L79.3375 70.8ZM74.1375 87.6H73.1375C73.1375 94.7731 75.4902 101.135 80.1756 106.648L80.9375 106L81.6994 105.352C77.3182 100.198 75.1375 94.2935 75.1375 87.6H74.1375ZM80.9375 106L80.1923 106.667C84.8818 111.908 91.8589 115.984 101.03 118.951L101.338 118L101.645 117.049C92.6828 114.149 86.0599 110.225 81.6827 105.333L80.9375 106ZM101.338 118L101.031 118.952L158.231 137.352L158.538 136.4L158.844 135.448L101.644 117.048L101.338 118ZM158.538 136.4L158.231 137.352C182.119 145.049 199.8 155.767 211.374 169.446L212.138 168.8L212.901 168.154C201.009 154.1 182.956 143.217 158.844 135.448L158.538 136.4ZM212.138 168.8L211.381 169.454C223.209 183.122 229.138 199.817 229.138 219.6H230.138H231.138C231.138 199.383 225.066 182.211 212.894 168.146L212.138 168.8ZM230.138 219.6H229.138C229.138 236.748 224.656 252.02 215.705 265.445L216.538 266L217.37 266.555C226.553 252.78 231.138 237.118 231.138 219.6H230.138ZM216.538 266L215.711 265.438C206.752 278.611 194.361 289.035 178.502 296.7L178.938 297.6L179.373 298.5C195.514 290.699 208.189 280.055 217.364 266.562L216.538 266ZM178.938 297.6L178.509 296.697C162.935 304.088 144.686 307.8 123.738 307.8V308.8V309.8C144.922 309.8 163.474 306.046 179.366 298.503L178.938 297.6ZM216.416 304L215.468 303.68L215.022 305H216.416V304ZM317.216 5.99997V4.99997H316.498L316.268 5.67955L317.216 5.99997ZM399.616 5.99997L400.563 5.67955L400.333 4.99997H399.616V5.99997ZM500.416 304V305H501.81L501.363 303.68L500.416 304ZM432.816 304L431.866 304.312L432.092 305H432.816V304ZM412.816 243.2L413.766 242.888L413.539 242.2H412.816V243.2ZM303.616 243.2V242.2H302.892L302.666 242.888L303.616 243.2ZM283.616 304V305H284.339L284.566 304.312L283.616 304ZM320.816 189.2L319.865 188.889L319.437 190.2H320.816V189.2ZM395.616 189.2V190.2H396.991L396.567 188.892L395.616 189.2ZM350.016 48.4V47.4H348.641L349.064 48.7081L350.016 48.4ZM366.816 48.4L367.766 48.7105L368.194 47.4H366.816V48.4ZM216.416 304L217.363 304.32L318.163 6.32039L317.216 5.99997L316.268 5.67955L215.468 303.68L216.416 304ZM317.216 5.99997V6.99997H399.616V5.99997V4.99997H317.216V5.99997ZM399.616 5.99997L398.668 6.32039L499.468 304.32L500.416 304L501.363 303.68L400.563 5.67955L399.616 5.99997ZM500.416 304V303H432.816V304V305H500.416V304ZM432.816 304L433.766 303.688L413.766 242.888L412.816 243.2L411.866 243.512L431.866 304.312L432.816 304ZM412.816 243.2V242.2H303.616V243.2V244.2H412.816V243.2ZM303.616 243.2L302.666 242.888L282.666 303.688L283.616 304L284.566 304.312L304.566 243.512L303.616 243.2ZM283.616 304V303H216.416V304V305H283.616V304ZM320.816 189.2V190.2H395.616V189.2V188.2H320.816V189.2ZM395.616 189.2L396.567 188.892L350.967 48.0919L350.016 48.4L349.064 48.7081L394.664 189.508L395.616 189.2ZM350.016 48.4V49.4H366.816V48.4V47.4H350.016V48.4ZM366.816 48.4L365.865 48.0894L319.865 188.889L320.816 189.2L321.766 189.511L367.766 48.7105L366.816 48.4ZM551.078 298.8L550.686 299.72L550.695 299.724L550.704 299.727L551.078 298.8ZM508.678 269.6L507.948 270.283L507.956 270.292L508.678 269.6ZM482.278 225.2L481.869 224.288L481.036 224.662L481.332 225.525L482.278 225.2ZM533.078 202.4L533.987 201.983L533.573 201.082L532.669 201.488L533.078 202.4ZM563.878 240.8L563.297 241.614L563.305 241.619L563.878 240.8ZM629.878 250.8L630.277 251.717L630.277 251.717L629.878 250.8ZM644.278 240L645.072 240.607L645.081 240.597L645.089 240.585L644.278 240ZM643.078 205.6L642.313 206.244L642.322 206.254L642.331 206.264L643.078 205.6ZM623.078 193.6L622.766 194.55L622.77 194.551L623.078 193.6ZM564.678 174.4L564.99 173.45L564.988 173.449L564.678 174.4ZM511.078 141.6L510.31 142.24L510.316 142.247L511.078 141.6ZM505.878 43.6L505.043 43.0491L505.036 43.0609L505.878 43.6ZM542.278 12.4L541.849 11.4965L541.843 11.4994L542.278 12.4ZM645.878 10.4L646.252 9.47264L646.252 9.47264L645.878 10.4ZM685.078 36.4L684.363 37.0986L684.371 37.1071L685.078 36.4ZM710.278 76.8L710.69 77.7111L711.529 77.3318L711.22 76.4647L710.278 76.8ZM659.878 99.6L658.951 99.9744L659.341 100.941L660.29 100.511L659.878 99.6ZM634.678 67.2L634.097 68.0137L634.103 68.0184L634.11 68.0229L634.678 67.2ZM574.278 59.2L574.663 60.1231L574.663 60.1231L574.278 59.2ZM559.478 70.8L560.289 71.3855L560.296 71.3752L560.303 71.3647L559.478 70.8ZM561.078 106L560.316 106.648L560.324 106.657L560.333 106.667L561.078 106ZM581.478 118L581.17 118.951L581.172 118.952L581.478 118ZM638.678 136.4L638.985 135.448L638.984 135.448L638.678 136.4ZM692.278 168.8L691.515 169.446L691.522 169.454L692.278 168.8ZM696.678 266L697.505 266.562L697.51 266.555L696.678 266ZM659.078 297.6L659.507 298.503L659.513 298.5L659.078 297.6ZM603.878 308.8V307.8C585.333 307.8 567.861 304.489 551.452 297.873L551.078 298.8L550.704 299.727C567.362 306.444 585.089 309.8 603.878 309.8V308.8ZM551.078 298.8L551.47 297.88C535.326 290.999 521.305 281.342 509.4 268.908L508.678 269.6L507.956 270.292C520.051 282.924 534.297 292.735 550.686 299.72L551.078 298.8ZM508.678 269.6L509.408 268.917C497.776 256.491 489.047 241.815 483.224 224.875L482.278 225.2L481.332 225.525C487.243 242.718 496.114 257.642 507.948 270.283L508.678 269.6ZM482.278 225.2L482.688 226.112L533.488 203.312L533.078 202.4L532.669 201.488L481.869 224.288L482.278 225.2ZM533.078 202.4L532.169 202.817C539.7 219.224 550.073 232.168 563.297 241.614L563.878 240.8L564.459 239.986C551.55 230.766 541.389 218.11 533.987 201.983L533.078 202.4ZM563.878 240.8L563.305 241.619C576.803 251.068 591.669 255.8 607.878 255.8V254.8V253.8C592.087 253.8 577.62 249.199 564.452 239.981L563.878 240.8ZM607.878 254.8V255.8C616.512 255.8 623.988 254.451 630.277 251.717L629.878 250.8L629.479 249.883C623.501 252.482 616.311 253.8 607.878 253.8V254.8ZM629.878 250.8L630.277 251.717C636.539 248.994 641.486 245.298 645.072 240.607L644.278 240L643.484 239.393C640.137 243.769 635.484 247.272 629.479 249.883L629.878 250.8ZM644.278 240L645.089 240.585C648.689 235.601 650.478 229.792 650.478 223.2H649.478H648.478C648.478 229.408 646.801 234.799 643.467 239.415L644.278 240ZM649.478 223.2H650.478C650.478 216.043 648.268 209.934 643.826 204.936L643.078 205.6L642.331 206.264C646.421 210.866 648.478 216.49 648.478 223.2H649.478ZM643.078 205.6L643.843 204.956C639.414 199.696 632.557 195.616 623.386 192.649L623.078 193.6L622.77 194.551C631.733 197.451 638.209 201.37 642.313 206.244L643.078 205.6ZM623.078 193.6L623.39 192.65L564.99 173.45L564.678 174.4L564.366 175.35L622.766 194.55L623.078 193.6ZM564.678 174.4L564.988 173.449C541.372 165.754 523.686 154.904 511.84 140.953L511.078 141.6L510.316 142.247C522.47 156.563 540.518 167.579 564.368 175.351L564.678 174.4ZM511.078 141.6L511.846 140.96C500.007 126.752 494.078 109.783 494.078 90H493.078H492.078C492.078 110.217 498.15 127.648 510.31 142.24L511.078 141.6ZM493.078 90H494.078C494.078 72.569 498.301 57.2938 506.72 44.139L505.878 43.6L505.036 43.0609C496.388 56.5728 492.078 72.231 492.078 90H493.078ZM505.878 43.6L506.713 44.1508C515.406 30.9793 527.396 20.6949 542.713 13.3005L542.278 12.4L541.843 11.4994C526.227 19.0384 513.95 29.554 505.044 43.0491L505.878 43.6ZM542.278 12.4L542.707 13.3034C558.286 5.90994 576.136 2.19999 596.278 2.19999V1.19999V0.199988C575.887 0.199988 557.737 3.9567 541.849 11.4966L542.278 12.4ZM596.278 1.19999V2.19999C614.028 2.19999 630.433 5.24615 645.504 11.3273L645.878 10.4L646.252 9.47264C630.923 3.28716 614.261 0.199988 596.278 0.199988V1.19999ZM645.878 10.4L645.504 11.3273C660.582 17.4114 673.531 26.0023 684.363 37.0985L685.078 36.4L685.794 35.7015C674.759 24.3977 661.575 15.6553 646.252 9.47264L645.878 10.4ZM685.078 36.4L684.371 37.1071C695.46 48.1965 703.783 61.534 709.336 77.1353L710.278 76.8L711.22 76.4647C705.573 60.5993 697.096 47.0035 685.785 35.6929L685.078 36.4ZM710.278 76.8L709.866 75.8889L659.466 98.6889L659.878 99.6L660.29 100.511L710.69 77.7111L710.278 76.8ZM659.878 99.6L660.805 99.2255C655.14 85.1961 646.623 74.2325 635.246 66.3771L634.678 67.2L634.11 68.0229C645.133 75.6342 653.417 86.2705 658.951 99.9744L659.878 99.6ZM634.678 67.2L635.259 66.3863C623.882 58.2593 610.876 54.2 596.278 54.2V55.2V56.2C610.48 56.2 623.075 60.1407 634.097 68.0137L634.678 67.2ZM596.278 55.2V54.2C587.904 54.2 580.436 55.5507 573.894 58.2769L574.278 59.2L574.663 60.1231C580.92 57.5159 588.119 56.2 596.278 56.2V55.2ZM574.278 59.2L573.894 58.2769C567.339 61.008 562.242 64.9891 558.653 70.2353L559.478 70.8L560.303 71.3647C563.647 66.4776 568.417 62.7253 574.663 60.1231L574.278 59.2ZM559.478 70.8L558.667 70.2145C555.068 75.1989 553.278 81.0077 553.278 87.6H554.278H555.278C555.278 81.3923 556.955 76.0011 560.289 71.3855L559.478 70.8ZM554.278 87.6H553.278C553.278 94.7731 555.631 101.135 560.316 106.648L561.078 106L561.84 105.352C557.459 100.198 555.278 94.2935 555.278 87.6H554.278ZM561.078 106L560.333 106.667C565.022 111.908 572 115.984 581.17 118.951L581.478 118L581.786 117.049C572.823 114.149 566.201 110.225 561.823 105.333L561.078 106ZM581.478 118L581.172 118.952L638.372 137.352L638.678 136.4L638.984 135.448L581.784 117.048L581.478 118ZM638.678 136.4L638.371 137.352C662.26 145.049 679.94 155.767 691.515 169.446L692.278 168.8L693.042 168.154C681.149 154.1 663.096 143.217 638.985 135.448L638.678 136.4ZM692.278 168.8L691.522 169.454C703.35 183.122 709.278 199.817 709.278 219.6H710.278H711.278C711.278 199.383 705.206 182.211 693.034 168.146L692.278 168.8ZM710.278 219.6H709.278C709.278 236.748 704.796 252.02 695.846 265.445L696.678 266L697.51 266.555C706.693 252.78 711.278 237.118 711.278 219.6H710.278ZM696.678 266L695.851 265.438C686.893 278.611 674.502 289.035 658.643 296.7L659.078 297.6L659.513 298.5C675.655 290.699 688.33 280.055 697.505 266.562L696.678 266ZM659.078 297.6L658.649 296.697C643.075 304.088 624.827 307.8 603.878 307.8V308.8V309.8C625.063 309.8 643.614 306.046 659.507 298.503L659.078 297.6ZM722.462 304H721.462V305H722.462V304ZM722.462 5.99997V4.99997H721.462V5.99997H722.462ZM784.463 5.99997H785.463V4.99997H784.463V5.99997ZM784.463 304V305H785.463V304H784.463ZM722.462 304H723.462V5.99997H722.462H721.462V304H722.462ZM722.462 5.99997V6.99997H784.463V5.99997V4.99997H722.462V5.99997ZM784.463 5.99997H783.463V304H784.463H785.463V5.99997H784.463ZM784.463 304V303H722.462V304V305H784.463V304ZM887.306 297.2L886.914 298.12L886.919 298.122L887.306 297.2ZM839.706 264.8L840.42 264.1L840.42 264.1L839.706 264.8ZM807.706 216L806.778 216.371L806.782 216.383L807.706 216ZM807.706 93.6L808.635 93.9714L808.637 93.9669L807.706 93.6ZM839.306 44.8L840.013 45.5071L840.02 45.5002L839.306 44.8ZM886.906 12.8L887.287 13.7247L887.294 13.7219L886.906 12.8ZM1004.91 12L1004.52 12.9214L1004.52 12.9235L1004.91 12ZM1048.91 40.8L1049.61 40.0929L1048.91 40.8ZM1074.51 80.8L1074.94 81.7009L1075.74 81.3146L1075.45 80.4735L1074.51 80.8ZM1019.71 107.2L1018.76 107.532L1019.13 108.586L1020.14 108.101L1019.71 107.2ZM992.906 71.6L992.298 72.3939L992.308 72.401L992.317 72.408L992.906 71.6ZM900.506 69.6L901.033 70.4499L901.033 70.4499L900.506 69.6ZM869.306 104L868.415 103.546L868.412 103.553L869.306 104ZM869.306 206L868.409 206.441L868.412 206.447L868.415 206.454L869.306 206ZM900.506 240.4L901.033 239.55L901.033 239.55L900.506 240.4ZM992.906 238.8L993.504 239.602L993.506 239.6L992.906 238.8ZM1019.71 202.8L1020.14 201.899L1019.13 201.414L1018.76 202.468L1019.71 202.8ZM1074.51 229.2L1075.45 229.527L1075.74 228.685L1074.94 228.299L1074.51 229.2ZM1048.91 269.2L1048.2 268.493L1048.2 268.493L1048.91 269.2ZM1004.91 298L1004.52 297.076L1004.52 297.079L1004.91 298ZM946.906 308.8V307.8C925.697 307.8 905.963 303.956 887.694 296.278L887.306 297.2L886.919 298.122C905.45 305.91 925.449 309.8 946.906 309.8V308.8ZM887.306 297.2L887.699 296.28C869.684 288.597 853.927 277.871 840.42 264.1L839.706 264.8L838.992 265.5C852.685 279.462 868.662 290.336 886.914 298.12L887.306 297.2ZM839.706 264.8L840.42 264.1C826.913 250.328 816.316 234.17 808.63 215.617L807.706 216L806.782 216.383C814.563 235.163 825.299 251.538 838.992 265.5L839.706 264.8ZM807.706 216L808.635 215.629C801.22 197.091 797.506 176.819 797.506 154.8H796.506H795.506C795.506 177.048 799.259 197.575 806.778 216.371L807.706 216ZM796.506 154.8H797.506C797.506 132.781 801.22 112.509 808.635 93.9714L807.706 93.6L806.778 93.2286C799.259 112.025 795.506 132.552 795.506 154.8H796.506ZM807.706 93.6L808.637 93.9669C816.056 75.1535 826.516 59.0046 840.013 45.5071L839.306 44.8L838.599 44.0929C824.897 57.7954 814.29 74.1798 806.776 93.2331L807.706 93.6ZM839.306 44.8L840.02 45.5002C853.525 31.7311 869.278 21.1403 887.287 13.7247L886.906 12.8L886.526 11.8753C868.268 19.393 852.288 30.1356 838.592 44.0998L839.306 44.8ZM886.906 12.8L887.294 13.7219C905.561 6.04421 925.428 2.19999 946.906 2.19999V1.19999V0.199988C925.184 0.199988 905.051 4.0891 886.519 11.8781L886.906 12.8ZM946.906 1.19999V2.19999C968.395 2.19999 987.593 5.78114 1004.52 12.9214L1004.91 12L1005.29 11.0786C988.087 3.81884 968.618 0.199988 946.906 0.199988V1.19999ZM1004.91 12L1004.52 12.9235C1021.75 20.0786 1036.3 29.6091 1048.2 41.5071L1048.91 40.8L1049.61 40.0929C1037.51 27.9909 1022.73 18.3214 1005.29 11.0765L1004.91 12ZM1048.91 40.8L1048.2 41.5071C1060.1 53.4101 1068.55 66.6161 1073.56 81.1265L1074.51 80.8L1075.45 80.4735C1070.33 65.6505 1061.71 52.1899 1049.61 40.0929L1048.91 40.8ZM1074.51 80.8L1074.07 79.8991L1019.27 106.299L1019.71 107.2L1020.14 108.101L1074.94 81.7009L1074.51 80.8ZM1019.71 107.2L1020.65 106.868C1015.51 92.2697 1006.45 80.2398 993.495 70.792L992.906 71.6L992.317 72.408C1004.96 81.6269 1013.77 93.3303 1018.76 107.532L1019.71 107.2ZM992.906 71.6L993.514 70.8061C980.781 61.0531 965.225 56.2 946.906 56.2V57.2V58.2C964.854 58.2 979.965 62.9469 992.298 72.3939L992.906 71.6ZM946.906 57.2V56.2C929.143 56.2 913.49 60.3737 899.979 68.7501L900.506 69.6L901.033 70.4499C914.19 62.2929 929.469 58.2 946.906 58.2V57.2ZM900.506 69.6L899.979 68.7501C886.483 77.1179 875.96 88.7251 868.415 103.546L869.306 104L870.197 104.454C877.585 89.9415 887.863 78.6154 901.033 70.4499L900.506 69.6ZM869.306 104L868.412 103.553C861.129 118.118 857.506 135.21 857.506 154.8H858.506H859.506C859.506 135.457 863.083 118.682 870.201 104.447L869.306 104ZM858.506 154.8H857.506C857.506 174.39 861.13 191.613 868.409 206.441L869.306 206L870.204 205.559C863.083 191.054 859.506 174.143 859.506 154.8H858.506ZM869.306 206L868.415 206.454C875.96 221.275 886.483 232.882 899.979 241.25L900.506 240.4L901.033 239.55C887.863 231.385 877.585 220.058 870.197 205.546L869.306 206ZM900.506 240.4L899.979 241.25C913.49 249.626 929.143 253.8 946.906 253.8V252.8V251.8C929.469 251.8 914.19 247.707 901.033 239.55L900.506 240.4ZM946.906 252.8V253.8C965.219 253.8 980.771 249.084 993.504 239.602L992.906 238.8L992.309 237.998C979.975 247.183 964.86 251.8 946.906 251.8V252.8ZM992.906 238.8L993.506 239.6C1006.46 229.887 1015.51 217.728 1020.65 203.132L1019.71 202.8L1018.76 202.468C1013.77 216.672 1004.96 228.513 992.306 238L992.906 238.8ZM1019.71 202.8L1019.27 203.701L1074.07 230.101L1074.51 229.2L1074.94 228.299L1020.14 201.899L1019.71 202.8ZM1074.51 229.2L1073.56 228.873C1068.55 243.384 1060.1 256.59 1048.2 268.493L1048.91 269.2L1049.61 269.907C1061.71 257.81 1070.33 244.349 1075.45 229.527L1074.51 229.2ZM1048.91 269.2L1048.2 268.493C1036.3 280.391 1021.75 289.921 1004.52 297.077L1004.91 298L1005.29 298.923C1022.73 291.679 1037.51 282.009 1049.61 269.907L1048.91 269.2ZM1004.91 298L1004.52 297.079C987.593 304.219 968.395 307.8 946.906 307.8V308.8V309.8C968.618 309.8 988.087 306.181 1005.29 298.921L1004.91 298ZM1169.09 297.2L1169.46 296.272L1169.46 296.272L1169.09 297.2ZM1118.69 264.8L1117.98 265.507L1117.99 265.514L1118 265.52L1118.69 264.8ZM1085.49 215.6L1086.41 215.206L1086.41 215.206L1085.49 215.6ZM1085.09 94L1084.17 93.606L1084.17 93.6172L1085.09 94ZM1118.29 45.2L1117.6 44.4796L1117.59 44.4862L1118.29 45.2ZM1294.29 12.8L1293.92 13.7276L1293.92 13.7276L1294.29 12.8ZM1344.29 45.2L1343.59 45.9138L1343.6 45.9203L1344.29 45.2ZM1377.49 94L1376.57 94.3828L1376.57 94.3939L1377.49 94ZM1377.49 215.6L1376.57 215.206L1376.57 215.206L1377.49 215.6ZM1343.89 264.8L1344.59 265.514L1344.59 265.514L1343.89 264.8ZM1293.89 297.2L1294.26 298.128L1293.89 297.2ZM1269.09 245.6L1268.71 244.674L1268.7 244.678L1269.09 245.6ZM1299.89 225.6L1300.59 226.318L1300.59 226.313L1300.6 226.307L1299.89 225.6ZM1320.29 194.4L1319.36 194.029L1319.36 194.029L1320.29 194.4ZM1320.29 115.6L1319.36 115.971L1319.37 115.979L1320.29 115.6ZM1269.09 64.4L1268.7 65.3224L1268.72 65.3278L1268.73 65.3328L1269.09 64.4ZM1193.49 64.4L1193.86 65.33L1193.87 65.3255L1193.49 64.4ZM1163.09 84.4L1162.38 83.6929L1162.38 83.6929L1163.09 84.4ZM1142.69 115.6L1143.62 115.979L1143.62 115.971L1142.69 115.6ZM1142.69 194.4L1141.76 194.771L1141.76 194.771L1142.69 194.4ZM1163.09 225.6L1162.38 226.307L1162.39 226.313L1162.39 226.318L1163.09 225.6ZM1193.49 245.6L1193.1 246.522L1193.11 246.526L1193.49 245.6ZM1231.49 308.8V307.8C1209.21 307.8 1188.54 303.954 1169.46 296.272L1169.09 297.2L1168.72 298.128C1188.05 305.913 1208.97 309.8 1231.49 309.8V308.8ZM1169.09 297.2L1169.46 296.272C1150.38 288.585 1133.69 277.854 1119.38 264.08L1118.69 264.8L1118 265.52C1132.49 279.479 1149.4 290.348 1168.72 298.128L1169.09 297.2ZM1118.69 264.8L1119.4 264.093C1105.36 250.051 1094.36 233.758 1086.41 215.206L1085.49 215.6L1084.57 215.994C1092.62 234.776 1103.76 251.282 1117.98 265.507L1118.69 264.8ZM1085.49 215.6L1086.41 215.206C1078.47 196.673 1074.49 176.542 1074.49 154.8H1073.49H1072.49C1072.49 176.792 1076.51 197.193 1084.57 215.994L1085.49 215.6ZM1073.49 154.8H1074.49C1074.49 133.054 1078.34 112.918 1086.01 94.3827L1085.09 94L1084.17 93.6172C1076.38 112.415 1072.49 132.813 1072.49 154.8H1073.49ZM1085.09 94L1086.01 94.3939C1093.96 75.844 1104.95 59.6868 1118.99 45.9138L1118.29 45.2L1117.59 44.4862C1103.36 58.4466 1092.22 74.8227 1084.17 93.6061L1085.09 94ZM1118.29 45.2L1118.98 45.9203C1133.29 32.1458 1149.98 21.4147 1169.06 13.7276L1168.69 12.8L1168.32 11.8724C1149 19.6519 1132.09 30.5209 1117.6 44.4797L1118.29 45.2ZM1168.69 12.8L1169.06 13.7276C1188.13 6.04643 1208.94 2.19999 1231.49 2.19999V1.19999V0.199988C1208.71 0.199988 1187.65 4.08687 1168.32 11.8724L1168.69 12.8ZM1231.49 1.19999V2.19999C1254.04 2.19999 1274.85 6.04643 1293.92 13.7276L1294.29 12.8L1294.66 11.8724C1275.33 4.08687 1254.27 0.199988 1231.49 0.199988V1.19999ZM1294.29 12.8L1293.92 13.7276C1313 21.4141 1329.56 32.1433 1343.59 45.9138L1344.29 45.2L1344.99 44.4862C1330.76 30.5233 1313.98 19.6526 1294.66 11.8724L1294.29 12.8ZM1344.29 45.2L1343.6 45.9203C1357.9 59.6904 1368.89 75.8418 1376.57 94.3827L1377.49 94L1378.41 93.6172C1370.63 74.8248 1359.48 58.4429 1344.98 44.4797L1344.29 45.2ZM1377.49 94L1376.57 94.3939C1384.51 112.927 1388.49 133.058 1388.49 154.8H1389.49H1390.49C1390.49 132.808 1386.47 112.407 1378.41 93.6061L1377.49 94ZM1389.49 154.8H1388.49C1388.49 176.542 1384.51 196.673 1376.57 215.206L1377.49 215.6L1378.41 215.994C1386.47 197.193 1390.49 176.792 1390.49 154.8H1389.49ZM1377.49 215.6L1376.57 215.206C1368.62 233.754 1357.5 250.045 1343.19 264.086L1343.89 264.8L1344.59 265.514C1359.08 251.288 1370.36 234.78 1378.41 215.994L1377.49 215.6ZM1343.89 264.8L1343.19 264.086C1329.16 277.857 1312.6 288.586 1293.52 296.272L1293.89 297.2L1294.26 298.128C1313.58 290.347 1330.36 279.477 1344.59 265.514L1343.89 264.8ZM1293.89 297.2L1293.52 296.272C1274.45 303.954 1253.77 307.8 1231.49 307.8V308.8V309.8C1254.01 309.8 1274.94 305.913 1294.26 298.128L1293.89 297.2ZM1231.49 252.8V253.8C1245.21 253.8 1257.88 251.378 1269.48 246.522L1269.09 245.6L1268.7 244.678C1257.37 249.422 1244.97 251.8 1231.49 251.8V252.8ZM1269.09 245.6L1269.47 246.526C1281.32 241.679 1291.69 234.943 1300.59 226.318L1299.89 225.6L1299.19 224.882C1290.49 233.324 1280.33 239.921 1268.71 244.674L1269.09 245.6ZM1299.89 225.6L1300.6 226.307C1309.5 217.408 1316.37 206.892 1321.22 194.771L1320.29 194.4L1319.36 194.029C1314.61 205.908 1307.88 216.192 1299.18 224.893L1299.89 225.6ZM1320.29 194.4L1321.22 194.771C1326.07 182.641 1328.49 169.313 1328.49 154.8H1327.49H1326.49C1326.49 169.087 1324.11 182.159 1319.36 194.029L1320.29 194.4ZM1327.49 154.8H1328.49C1328.49 140.288 1326.07 127.09 1321.22 115.221L1320.29 115.6L1319.37 115.979C1324.11 127.577 1326.49 140.512 1326.49 154.8H1327.49ZM1320.29 115.6L1321.22 115.229C1316.37 103.108 1309.5 92.5923 1300.6 83.6929L1299.89 84.4L1299.18 85.1071C1307.88 93.8076 1314.61 104.092 1319.36 115.971L1320.29 115.6ZM1299.89 84.4L1300.6 83.6929C1291.7 74.7932 1281.31 68.0502 1269.45 63.4672L1269.09 64.4L1268.73 65.3328C1280.33 69.8164 1290.48 76.4068 1299.18 85.1071L1299.89 84.4ZM1269.09 64.4L1269.48 63.4775C1257.88 58.6217 1245.21 56.2 1231.49 56.2V57.2V58.2C1244.97 58.2 1257.37 60.5783 1268.7 65.3224L1269.09 64.4ZM1231.49 57.2V56.2C1217.77 56.2 1204.97 58.6218 1193.11 63.4744L1193.49 64.4L1193.87 65.3255C1205.47 60.5782 1218.01 58.2 1231.49 58.2V57.2ZM1193.49 64.4L1193.12 63.47C1181.53 68.0541 1171.28 74.7971 1162.38 83.6929L1163.09 84.4L1163.8 85.1071C1172.5 76.4029 1182.52 69.8125 1193.86 65.3299L1193.49 64.4ZM1163.09 84.4L1162.38 83.6929C1153.48 92.5923 1146.61 103.108 1141.76 115.229L1142.69 115.6L1143.62 115.971C1148.37 104.092 1155.1 93.8076 1163.8 85.1071L1163.09 84.4ZM1142.69 115.6L1141.77 115.221C1136.91 127.09 1134.49 140.288 1134.49 154.8H1135.49H1136.49C1136.49 140.512 1138.87 127.577 1143.62 115.979L1142.69 115.6ZM1135.49 154.8H1134.49C1134.49 169.313 1136.91 182.641 1141.76 194.771L1142.69 194.4L1143.62 194.029C1138.87 182.159 1136.49 169.087 1136.49 154.8H1135.49ZM1142.69 194.4L1141.76 194.771C1146.61 206.892 1153.48 217.408 1162.38 226.307L1163.09 225.6L1163.8 224.893C1155.1 216.192 1148.37 205.908 1143.62 194.029L1142.69 194.4ZM1163.09 225.6L1162.39 226.318C1171.29 234.939 1181.52 241.675 1193.1 246.522L1193.49 245.6L1193.88 244.678C1182.52 239.925 1172.5 233.327 1163.79 224.882L1163.09 225.6ZM1193.49 245.6L1193.11 246.526C1204.97 251.378 1217.77 253.8 1231.49 253.8V252.8V251.8C1218.01 251.8 1205.47 249.422 1193.87 244.674L1193.49 245.6Z" fill="url(#paint0_linear_6044_1669)" mask="url(#path-1-outside-1_6044_1669)"/>
<defs>
<linearGradient id="paint0_linear_6044_1669" x1="698" y1="6" x2="698" y2="304" gradientUnits="userSpaceOnUse">
<stop stop-color="white" stop-opacity="0.15"/>
<stop offset="1" stop-color="white" stop-opacity="0"/>
</linearGradient>
</defs>
</svg>
